<svg width="201" height="165" viewBox="0 0 201 165" fill="none" xmlns="http://www.w3.org/2000/svg">
<path fill-rule="evenodd" clip-rule="evenodd" d="M7.73814 6.13057C3.68274 9.11571 0.363281 12.4377 0.363281 13.5131C0.363281 18.2707 80.2074 158.435 84.7348 161.625C92.3891 167.017 103.136 165.602 111.851 158.057C119.297 151.609 135.173 132.722 135.351 130.097C135.399 129.384 130.374 128.801 124.183 128.801C113.868 128.801 112.262 128.042 104.979 119.732C100.609 114.744 88.7545 95.5034 78.6362 76.9758C48.1586 21.1703 38.9159 6.55554 32.0969 3.39678C23.1089 -0.769975 16.0321 0.0255446 7.73814 6.13057ZM169.231 10.7534C161.776 14.7362 154.541 23.6087 145.58 39.7652L136.854 55.4942L143.889 61.7444C154.363 71.0496 163.242 72.3297 171.431 65.7142C178.552 59.9616 199.55 30.4159 200.34 25.0365C200.994 20.595 187.716 10.3854 179.936 9.34633C176.385 8.87213 171.567 9.50439 169.231 10.7534ZM81.0986 22.199C78.1098 24.1425 73.6741 27.0732 71.2427 28.7135L66.8193 31.6934L81.3346 57.9922C107.305 105.05 112.905 113.502 120.437 117.021C124.539 118.939 129.973 119.54 133.702 118.488C140.658 116.526 155.561 101.38 162.207 89.5228L166.461 81.9303L155.996 81.863C142.265 81.7749 136.135 76.2995 121.972 51.4648C105.987 23.435 93.2368 14.306 81.0986 22.199Z" fill="url(#paint0_linear_126_614)"/>
<defs>
<linearGradient id="paint0_linear_126_614" x1="31.9422" y1="-26.5478" x2="207.092" y2="118.667" gradientUnits="userSpaceOnUse">
<stop stop-color="#47A8BA"/>
<stop offset="1" stop-color="#082E53"/>
</linearGradient>
</defs>
</svg>
