<svg width="38" height="24" viewBox="0 0 38 24" fill="none" xmlns="http://www.w3.org/2000/svg">
<path id="image 982 (Traced)" fill-rule="evenodd" clip-rule="evenodd" d="M1.40122 0.780046C0.630698 1.2167 0 1.70263 0 1.85993C0 2.55584 15.1704 23.0584 16.0306 23.525C17.4849 24.3138 19.5269 24.1069 21.1827 23.0031C22.5975 22.06 25.6138 19.2972 25.6477 18.9133C25.6568 18.809 24.7019 18.7237 23.5258 18.7237C21.5659 18.7237 21.2608 18.6127 19.877 17.3971C19.0466 16.6675 16.7943 13.8531 14.8719 11.143C9.08111 2.97999 7.32501 0.842208 6.02939 0.38016C4.32167 -0.229335 2.97708 -0.11297 1.40122 0.780046ZM32.0848 1.45625C30.6685 2.03883 29.2938 3.33666 27.5911 5.69997L25.9333 8.00074L27.2699 8.91498C29.2599 10.2761 30.947 10.4634 32.5028 9.49567C33.8559 8.6542 37.8454 4.3324 37.9956 3.54551C38.1198 2.89584 35.597 1.40243 34.1188 1.25043C33.4441 1.18107 32.5287 1.27355 32.0848 1.45625ZM15.3397 3.13047C14.7718 3.41474 13.929 3.84344 13.4671 4.08337L12.6266 4.51926L15.3845 8.36613C20.3189 15.2495 21.383 16.4859 22.814 17.0006C23.5934 17.2811 24.6258 17.3691 25.3344 17.2152C26.656 16.9282 29.4876 14.7128 30.7502 12.9783L31.5585 11.8677L29.5702 11.8578C26.9613 11.845 25.7967 11.044 23.1057 7.41133C20.0685 3.31127 17.646 1.97591 15.3397 3.13047Z" fill="url(#paint0_linear_100_4955)"/>
<defs>
<linearGradient id="paint0_linear_100_4955" x1="6" y1="-4" x2="32" y2="24" gradientUnits="userSpaceOnUse">
<stop stop-color="#47A8BA"/>
<stop offset="1" stop-color="#082E53"/>
</linearGradient>
</defs>
</svg>
